<?xml version="1.0" encoding="UTF-8"?>
<svg preserveAspectRatio="xMidYMid slice" xmlns="http://www.w3.org/2000/svg" width="34px" height="34px" viewBox="0 0 85 85" fill="none">
  <g clip-path="url(#clip0_696_6343)">
    <path d="M85 85H0V21.25L42.5 0L85 21.25V85Z" fill="#F8B4B4"></path>
    <path d="M10.625 45.1562H74.375V85H10.625V45.1562Z" fill="#F05252"></path>
    <path d="M55.6477 68.4181L51.8912 72.1746C46.7132 66.9965 38.2868 66.9965 33.1087 72.1746L29.3523 68.4181C36.601 61.1692 48.3988 61.1692 55.6477 68.4181Z" fill="#C81E1E"></path>
    <path d="M63.1608 60.9052L59.4044 64.6616C50.0828 55.34 34.9174 55.34 25.5958 64.6616L21.8394 60.9052C33.2317 49.5127 51.7683 49.5127 63.1608 60.9052Z" fill="#C81E1E"></path>
    <path d="M48.1348 75.9311L44.3783 79.6875C43.3421 78.6512 41.6582 78.6512 40.6219 79.6875L36.8655 75.9311C39.9725 72.8238 45.0276 72.8238 48.1348 75.9311Z" fill="#C81E1E"></path>
    <path d="M10.625 37.1875H74.375V45.1562H10.625V37.1875Z" fill="#C81E1E"></path>
    <path d="M26.5625 21.25H58.4375V26.5625H26.5625V21.25Z" fill="#F05252"></path>
  </g>
  <defs>
    <clipPath id="clip0_696_6343">
      <rect width="85" height="85" fill="white"></rect>
    </clipPath>
  </defs>
</svg>
