<svg width="326" height="367" viewBox="0 0 326 367" fill="none" xmlns="http://www.w3.org/2000/svg">
<g clip-path="url(#clip0_1014_6636)">
<ellipse cx="157.541" cy="339.606" rx="129" ry="10" fill="#E5E7EB"/>
<path d="M138.212 300.532L82.4648 175.089L207.908 119.342L263.655 244.786L138.212 300.532Z" fill="#F05252"/>
<path d="M10.7828 206.944L46.6238 191.016L54.5876 208.937L90.4286 193.009L128.259 229.847L130.248 282.612L94.4067 298.539L102.371 316.46L66.5295 332.388L10.7828 206.944Z" fill="#F8B4B4"/>
<path d="M130.248 282.612L90.4286 193.009L108.349 185.045L148.168 274.648L130.248 282.612Z" fill="#C81E1E"/>
<path d="M124.284 27.7467L142.205 19.7829L166.096 73.5444C170.495 83.4416 182.084 87.8994 191.981 83.5011L245.742 59.6096C265.537 50.8131 288.714 59.7287 297.511 79.523L313.438 115.364C322.235 135.158 313.319 158.336 293.525 167.133L239.764 191.024L217.861 190.028L231.8 173.104L285.561 149.212C295.458 144.814 299.916 133.225 295.518 123.328L279.59 87.4868C275.192 77.5897 263.603 73.1319 253.706 77.5301L199.945 101.422C180.15 110.218 156.972 101.303 148.176 81.5082L124.284 27.7467Z" fill="#F8B4B4"/>
<path d="M68.5225 288.583L60.5586 270.662L78.4791 262.698L86.443 280.619L68.5225 288.583Z" fill="#F05252"/>
<path d="M52.5947 252.742L44.6309 234.821L62.5514 226.857L70.5152 244.778L52.5947 252.742Z" fill="#F05252"/>
<path d="M166.089 266.684L126.27 177.082L180.031 153.19L219.85 242.793L166.089 266.684Z" fill="#F8B4B4"/>
<path d="M221.843 198.988L213.879 181.067L231.8 173.104L239.764 191.024L221.843 198.988Z" fill="#C81E1E"/>
</g>
<defs>
<clipPath id="clip0_1014_6636">
<rect width="326" height="367" fill="white"/>
</clipPath>
</defs>
</svg>
