<svg width="25" height="25" viewBox="0 0 25 25" fill="none" xmlns="http://www.w3.org/2000/svg">
<path fill-rule="evenodd" clip-rule="evenodd" d="M12.4997 0C19.4031 0 24.9994 5.59631 24.9994 12.4997C24.9994 19.4031 19.4031 24.9994 12.4997 24.9994C5.59631 24.9994 0 19.4031 0 12.4997C0 5.59631 5.59631 0 12.4997 0Z" fill="#E02424"/>
<path d="M14.1244 24.8945V15.2395H16.8464L17.2072 11.8414H14.1244L14.129 10.1405C14.129 9.25421 14.2132 8.77954 15.4862 8.77954H17.1881V5.38086H14.4655C11.1953 5.38086 10.0444 7.02922 10.0444 9.80166V11.8417H8.00586V15.2401H10.0444V24.7576C10.8386 24.9158 11.6596 24.9994 12.5003 24.9994C13.0434 24.9994 13.5859 24.9644 14.1244 24.8945Z" fill="#FAFAFA"/>
</svg>
