<?xml version="1.0" encoding="UTF-8"?>
<svg xmlns="http://www.w3.org/2000/svg" width="100" height="100" viewBox="0 0 100 100" fill="none">
  <path d="M62.5 21.875L75 40.625H96.875V59.375H3.125V56.25C3.125 51.0723 7.32227 46.875 12.5 46.875C12.5 33.068 23.6928 21.875 37.5 21.875H62.5Z" fill="#F8B4B4"></path>
  <path d="M90.625 46.875H84.375V34.375H90.625V46.875Z" fill="#F05252"></path>
  <path d="M84.375 40.625H90.625V46.875H84.375V40.625Z" fill="#C81E1E"></path>
  <path d="M100 65.625H0V59.375H100V65.625Z" fill="#F05252"></path>
  <path d="M25 78.125C31.9036 78.125 37.5 72.5286 37.5 65.625C37.5 58.7214 31.9036 53.125 25 53.125C18.0964 53.125 12.5 58.7214 12.5 65.625C12.5 72.5286 18.0964 78.125 25 78.125Z" fill="#F05252"></path>
  <path d="M25 53.125C31.9035 53.125 37.5 58.7211 37.5 65.625H12.5C12.5 58.7211 18.0965 53.125 25 53.125Z" fill="#C81E1E"></path>
  <path d="M75 78.125C81.9036 78.125 87.5 72.5286 87.5 65.625C87.5 58.7214 81.9036 53.125 75 53.125C68.0964 53.125 62.5 58.7214 62.5 65.625C62.5 72.5286 68.0964 78.125 75 78.125Z" fill="#F05252"></path>
  <path d="M75 53.125C81.9035 53.125 87.5 58.7211 87.5 65.625H62.5C62.5 58.7211 68.0965 53.125 75 53.125Z" fill="#C81E1E"></path>
  <path d="M53.125 40.625H75L66.6666 28.125H53.125V40.625Z" fill="#F05252"></path>
  <path d="M46.875 28.125H37.5C29.3517 28.125 22.4048 33.3508 19.825 40.625H46.875V28.125Z" fill="#F05252"></path>
</svg>
