<?xml version="1.0" encoding="UTF-8"?>
<svg xmlns="http://www.w3.org/2000/svg" width="100" height="100" viewBox="0 0 100 100" fill="none">
  <path d="M25 65.625H12.5C5.59648 65.625 0 71.2215 0 78.125V87.5H6.25V78.125C6.25 74.6732 9.04824 71.875 12.5 71.875H25V65.625Z" fill="#F05252"></path>
  <path d="M75 65.625H87.5C94.4035 65.625 100 71.2215 100 78.125V87.5H93.75V78.125C93.75 74.6732 90.9518 71.875 87.5 71.875H75V65.625Z" fill="#F05252"></path>
  <path d="M25 21.875H12.5C5.59648 21.875 0 27.4715 0 34.375V43.75H6.25V34.375C6.25 30.9232 9.04824 28.125 12.5 28.125H25V21.875Z" fill="#F05252"></path>
  <path d="M75 21.875H87.5C94.4035 21.875 100 27.4715 100 34.375V43.75H93.75V34.375C93.75 30.9232 90.9518 28.125 87.5 28.125H75V21.875Z" fill="#F05252"></path>
  <path d="M18.75 12.5H81.25V37.5H18.75V12.5Z" fill="#F8B4B4"></path>
  <path d="M18.75 56.25H81.25V81.25H18.75V56.25Z" fill="#F8B4B4"></path>
  <path d="M18.75 21.875H25V28.125H18.75V21.875Z" fill="#C81E1E"></path>
  <path d="M75 21.875H81.25V28.125H75V21.875Z" fill="#C81E1E"></path>
  <path d="M37.5 12.5H43.75V37.5H37.5V12.5Z" fill="#F05252"></path>
  <path d="M56.25 12.5H62.5V37.5H56.25V12.5Z" fill="#F05252"></path>
  <path d="M18.75 65.625H25V71.875H18.75V65.625Z" fill="#C81E1E"></path>
  <path d="M75 65.625H81.25V71.875H75V65.625Z" fill="#C81E1E"></path>
  <path d="M37.5 56.25H43.75V81.25H37.5V56.25Z" fill="#F05252"></path>
  <path d="M56.25 56.25H62.5V81.25H56.25V56.25Z" fill="#F05252"></path>
</svg>
