<?xml version="1.0" encoding="UTF-8"?>
<svg xmlns="http://www.w3.org/2000/svg" width="85" height="85" viewBox="0 0 85 85" fill="none">
  <g clip-path="url(#clip0_750_8331)">
    <path d="M85 85H0V21.25L42.5 0L85 21.25V85Z" fill="#F8B4B4"></path>
    <path d="M10.625 45.1562H74.375V85H10.625V45.1562Z" fill="#F05252"></path>
    <path d="M55.6478 68.418L51.8914 72.1744C46.7133 66.9964 38.2869 66.9964 33.1089 72.1744L29.3524 68.418C36.6012 61.1691 48.3989 61.1691 55.6478 68.418Z" fill="#C81E1E"></path>
    <path d="M63.1608 60.905L59.4044 64.6614C50.0828 55.3398 34.9174 55.3398 25.5958 64.6614L21.8394 60.905C33.2317 49.5125 51.7683 49.5125 63.1608 60.905Z" fill="#C81E1E"></path>
    <path d="M48.1348 75.931L44.3783 79.6874C43.3421 78.6512 41.6582 78.6512 40.6219 79.6874L36.8655 75.931C39.9725 72.8237 45.0276 72.8237 48.1348 75.931Z" fill="#C81E1E"></path>
    <path d="M10.625 37.1875H74.375V45.1562H10.625V37.1875Z" fill="#C81E1E"></path>
    <path d="M26.5625 21.25H58.4375V26.5625H26.5625V21.25Z" fill="#F05252"></path>
  </g>
  <defs>
    <clipPath id="clip0_750_8331">
      <rect width="85" height="85" fill="white"></rect>
    </clipPath>
  </defs>
</svg>
