<?xml version="1.0" encoding="UTF-8"?>
<svg preserveAspectRatio="xMidYMid slice" xmlns="http://www.w3.org/2000/svg" width="34px" height="34px" viewBox="0 0 1878 1878" fill="none">
  <g clip-path="url(#clip0_735_7987)">
    <path d="M771.302 1099.23C771.302 1101.37 772.901 1102.97 775.034 1102.97C775.034 1105.1 776.634 1106.7 778.767 1106.7C780.366 1106.7 781.966 1105.63 782.499 1104.03H844.086L939.266 1199.21L1034.45 1104.03H1104.3V1034.18L1199.48 939L1104.3 843.82V773.968H1034.45L939.266 678.789L844.086 773.968H774.234V843.82L679.055 939L774.234 1034.18V1095.77C772.368 1096.03 771.302 1097.63 771.302 1099.23ZM681.721 939L775.834 844.887L776.101 844.62V775.835H844.886L939.266 681.455L1033.38 775.568L1033.65 775.835H1102.43V844.62L1196.81 939L1102.7 1033.11L1102.43 1033.38V1102.17H1033.65L939.266 1196.55L845.153 1102.43L844.886 1102.17H782.499C781.966 1100.57 780.633 1099.5 778.767 1099.5C778.767 1097.9 777.7 1096.3 776.101 1095.77V1033.38L681.721 939Z" fill="#BA1818"></path>
    <path d="M580.143 960.329C581.742 960.329 583.342 959.262 583.875 957.663H619.334L753.439 1091.77V1125.09H786.765L920.87 1259.2V1294.66C919.27 1295.19 918.204 1296.52 918.204 1298.39C918.204 1300.52 919.803 1302.12 921.936 1302.12C924.069 1302.12 925.669 1300.52 925.669 1298.39C925.669 1296.79 924.602 1295.19 923.003 1294.66V1258.4L788.098 1123.49L787.832 1123.23H755.838V1091.23L620.934 956.33L620.667 956.063H584.408C583.875 954.463 582.542 953.397 580.676 953.397C578.543 953.397 576.943 954.997 576.943 957.129C576.41 958.729 578.01 960.329 580.143 960.329Z" fill="#BA1818"></path>
    <path d="M580.143 925.136C581.742 925.136 583.342 924.07 583.875 922.47H620.134L755.039 787.566L755.305 787.299V755.306H787.299L922.203 620.401L922.47 620.135V583.876C924.069 583.342 925.136 582.009 925.136 580.143C925.136 578.01 923.536 576.411 921.403 576.411C919.27 576.411 917.671 578.01 917.671 580.143C917.671 581.743 918.737 583.342 920.337 583.876V619.335L786.232 753.44H752.906V786.766L618.801 920.87H583.342C582.809 919.271 581.476 918.204 579.609 918.204C577.477 918.204 575.877 919.804 575.877 921.937C576.41 923.537 578.01 925.136 580.143 925.136Z" fill="#BA1818"></path>
    <path d="M955.797 583.609V619.868L1090.7 754.773L1090.97 755.039H1122.96V787.032L1257.87 921.937L1258.13 922.204H1294.39C1294.92 923.803 1296.26 924.87 1298.12 924.87C1300.26 924.87 1301.86 923.27 1301.86 921.137C1301.86 919.004 1300.26 917.405 1298.12 917.405C1296.52 917.405 1294.92 918.471 1294.39 920.071H1258.93L1124.83 785.966V752.64H1091.5L957.397 618.535V583.076C958.996 582.543 960.063 581.21 960.063 579.343C960.063 577.21 958.463 575.611 956.33 575.611C954.197 575.611 952.598 577.21 952.598 579.343C952.864 581.743 954.197 583.342 955.797 583.609Z" fill="#BA1818"></path>
    <path d="M1297.86 952.864C1296.26 952.864 1294.66 953.93 1294.12 955.53H1257.86L1122.96 1090.43L1122.69 1090.7V1122.69H1090.7L955.796 1257.6L955.529 1257.87V1294.12C953.93 1294.66 952.863 1295.99 952.863 1297.86C952.863 1299.99 954.463 1301.59 956.596 1301.59C958.729 1301.59 960.328 1299.99 960.328 1297.86C960.328 1296.26 959.262 1294.66 957.662 1294.12V1258.67L1091.77 1124.56H1125.09V1091.23L1259.2 957.129H1294.66C1295.19 958.729 1296.52 959.796 1298.39 959.796C1300.52 959.796 1302.12 958.196 1302.12 956.063C1301.59 954.463 1299.99 952.864 1297.86 952.864Z" fill="#BA1818"></path>
    <path d="M587.609 978.458L725.446 1116.3V1143.76C723.847 1144.29 722.78 1145.62 722.78 1147.49C722.78 1149.62 724.38 1151.22 726.513 1151.22C726.513 1153.35 728.112 1154.95 730.245 1154.95C731.845 1154.95 733.444 1153.89 733.978 1152.29H761.439L899.276 1290.13V1330.65L938.734 1370.11L978.192 1330.65V1290.13L1116.03 1152.29H1152.02V1116.3L1290.39 978.458H1330.92L1370.38 939L1330.92 899.542H1290.39L1152.56 761.704V725.712H1116.56L978.459 587.608V547.083L939.001 507.625L899.542 547.083V587.608L761.705 725.445H725.713V761.438L587.876 899.275H547.351L507.893 938.733L547.351 978.192L587.609 978.458ZM547.884 901.408H588.409L727.312 762.504L727.579 762.238V727.578H762.238L901.142 588.675L901.409 588.408V547.883L939.001 510.291L976.593 547.883V588.408L1115.5 727.312L1115.76 727.578H1150.42V762.238L1289.33 901.141L1289.59 901.408H1330.12L1367.71 939L1330.12 976.592H1289.59L1150.69 1115.5L1150.42 1115.76V1150.42H1115.76L976.859 1289.33L976.593 1289.59V1330.12L939.001 1367.71L901.409 1330.12V1289.59L762.505 1150.69L762.238 1150.42H733.978C733.444 1148.82 732.111 1147.76 730.245 1147.76C730.245 1146.16 729.179 1144.56 727.579 1144.02V1115.76L588.675 976.859L588.409 976.592H547.884L510.292 939L547.884 901.408Z" fill="#BA1818"></path>
    <path d="M887.278 1436.49C886.478 1437.83 886.745 1439.69 887.811 1441.03C889.411 1442.63 891.544 1442.63 893.144 1441.03C893.144 1443.16 894.743 1444.76 896.876 1444.76C898.476 1444.76 900.075 1443.69 900.609 1442.09H926.203L939 1454.89L951.798 1442.09H985.124L1441.56 985.657L1441.83 985.39V951.797L1454.62 939L1441.83 926.203V892.876L985.391 436.44L985.124 436.174H951.798L939 423.376L926.203 436.174H892.877L436.441 892.61L436.174 892.876V926.203L423.377 939L436.174 951.797V985.123L887.278 1436.49ZM426.043 939L438.04 927.003V893.676L893.677 438.04H927.003L939 426.043L950.998 438.04H984.324L1439.96 893.676V927.003L1451.96 939L1439.96 950.997V984.324L984.324 1439.96H950.998L939 1451.96L927.003 1439.96H900.609C900.075 1438.36 898.742 1437.29 896.876 1437.29C895.81 1437.29 895.01 1437.83 894.21 1438.36C894.21 1437.29 893.943 1436.49 893.144 1435.69C891.81 1434.36 890.211 1434.36 888.611 1435.16L438.04 984.59V951.264L426.043 939Z" fill="#BA1818"></path>
    <path d="M578.544 1190.41L687.32 1299.19L687.587 1299.46H718.247L845.154 1426.36C844.354 1427.7 844.62 1429.56 845.687 1430.9C847.286 1432.49 849.419 1432.49 851.019 1430.9C852.619 1429.3 852.619 1427.16 851.019 1425.56C849.686 1424.23 848.086 1424.23 846.487 1425.03L719.314 1297.86L719.047 1297.59H688.387L580.41 1189.61V1158.95L453.237 1031.25C454.037 1029.91 453.77 1028.05 452.704 1026.71C451.104 1025.11 448.971 1025.11 447.372 1026.71C445.772 1028.31 445.772 1030.45 447.372 1032.05C448.705 1033.38 450.304 1033.38 451.904 1032.58L578.544 1159.75V1190.41Z" fill="#BA1818"></path>
    <path d="M452.703 851.019C454.036 849.686 454.036 848.086 453.236 846.486L580.409 719.313L580.676 719.047V688.387L688.653 580.41H719.313L846.752 452.97C848.085 453.77 849.952 453.503 851.285 452.437C852.884 450.837 852.884 448.704 851.285 447.105C849.685 445.505 847.552 445.505 845.952 447.105C844.619 448.438 844.619 450.037 845.419 451.637L718.513 578.543H687.853L579.076 687.32L578.809 687.587V718.247L451.636 845.153C450.303 844.353 448.437 844.62 447.104 845.687C445.504 847.286 445.504 849.419 447.104 851.019C448.704 852.618 451.103 852.618 452.703 851.019Z" fill="#BA1818"></path>
    <path d="M1031.25 453.237L1158.42 580.41L1158.69 580.676H1189.35L1297.32 688.653V719.313L1424.76 846.753C1423.96 848.086 1424.23 849.952 1425.3 851.285C1426.9 852.885 1429.03 852.885 1430.63 851.285C1432.23 849.686 1432.23 847.553 1430.63 845.953C1429.3 844.62 1427.7 844.62 1426.1 845.42L1299.19 718.514V687.853L1190.41 579.077L1190.15 578.81H1159.49L1032.58 451.904C1033.38 450.571 1033.11 448.704 1032.05 447.371C1030.45 445.772 1028.32 445.772 1026.72 447.371C1025.12 448.971 1025.12 451.104 1026.72 452.704C1028.05 453.77 1029.91 454.037 1031.25 453.237Z" fill="#BA1818"></path>
    <path d="M1425.56 1026.98C1424.23 1028.31 1424.23 1029.91 1425.03 1031.51L1297.86 1158.69L1297.59 1158.95V1189.61L1189.61 1297.59H1158.95L1031.51 1425.03C1030.18 1424.23 1028.31 1424.5 1026.98 1425.56C1025.38 1427.16 1025.38 1429.3 1026.98 1430.9C1028.58 1432.49 1030.71 1432.49 1032.31 1430.9C1033.65 1429.56 1033.65 1427.96 1032.85 1426.36L1159.75 1299.46H1190.41L1299.19 1190.68L1299.46 1190.41V1159.75L1426.36 1032.85C1427.7 1033.65 1429.56 1033.38 1430.89 1032.31C1432.49 1030.71 1432.49 1028.58 1430.89 1026.98C1429.3 1025.38 1426.9 1025.38 1425.56 1026.98Z" fill="#BA1818"></path>
    <path d="M571.612 1224.01L653.994 1306.39C653.195 1307.72 653.461 1309.59 654.528 1310.92C656.127 1312.52 658.26 1312.52 659.86 1310.92C661.46 1309.32 661.46 1307.19 659.86 1305.59C658.527 1304.26 656.927 1304.26 655.327 1305.06L573.212 1222.41C574.011 1221.07 573.745 1219.21 572.678 1217.87C571.079 1216.27 568.946 1216.27 567.346 1217.87C565.747 1219.47 565.747 1221.61 567.346 1223.21C568.413 1224.54 570.279 1224.81 571.612 1224.01Z" fill="#BA1818"></path>
    <path d="M572.411 660.126C573.744 658.793 573.744 657.193 572.944 655.594L655.327 573.211C656.66 574.011 658.526 573.744 659.859 572.678C661.459 571.078 661.459 568.946 659.859 567.346C658.259 565.746 656.126 565.746 654.527 567.346C653.194 568.679 653.194 570.279 653.993 571.878L571.611 654.261C570.278 653.461 568.412 653.727 567.079 654.794C565.479 656.394 565.479 658.526 567.079 660.126C568.678 661.459 571.078 661.459 572.411 660.126Z" fill="#BA1818"></path>
    <path d="M1222.41 573.211L1304.79 655.594C1303.99 656.927 1304.26 658.793 1305.32 660.126C1306.92 661.726 1309.05 661.726 1310.65 660.126C1312.25 658.526 1312.25 656.394 1310.65 654.794C1309.32 653.461 1307.72 653.461 1306.12 654.261L1223.74 571.878C1224.54 570.545 1224.27 568.679 1223.21 567.346C1221.61 565.746 1219.47 565.746 1217.87 567.346C1216.27 568.946 1216.27 571.078 1217.87 572.678C1219.21 573.744 1221.07 574.011 1222.41 573.211Z" fill="#BA1818"></path>
    <path d="M1305.59 1218.14C1304.26 1219.47 1304.26 1221.07 1305.06 1222.67L1222.67 1305.06C1221.34 1304.26 1219.47 1304.52 1218.14 1305.59C1216.54 1307.19 1216.54 1309.32 1218.14 1310.92C1219.74 1312.52 1221.87 1312.52 1223.47 1310.92C1224.81 1309.59 1224.81 1307.99 1224.01 1306.39L1306.39 1224.01C1307.72 1224.81 1309.59 1224.54 1310.92 1223.47C1312.52 1221.87 1312.52 1219.74 1310.92 1218.14C1309.32 1216.54 1306.92 1216.54 1305.59 1218.14Z" fill="#BA1818"></path>
    <path d="M647.595 1331.18C649.195 1332.78 651.328 1332.78 652.927 1331.18C652.927 1333.32 654.527 1334.92 656.66 1334.92C658.26 1334.92 659.859 1333.85 660.393 1332.25H714.514L847.819 1465.55L848.086 1465.82H904.074L939 1500.75L973.926 1465.82H1029.91L1163.49 1332.25H1225.61L1331.72 1226.14L1331.98 1225.87V1163.75L1465.29 1030.45L1465.55 1030.18V974.192L1500.48 939.267L1465.55 904.341V848.353L1331.98 714.514V652.394L1225.87 546.284L1225.61 546.017H1163.49L1030.18 412.712L1029.91 412.445H973.926L939 377.52L904.074 412.445H848.086L714.514 546.017H652.394L546.284 652.128L546.017 652.394V714.514L412.712 847.819L412.445 848.086V904.074L377.52 939L412.445 973.926V1029.91L546.017 1163.49V1225.61L647.062 1326.65C645.996 1327.98 646.262 1329.85 647.595 1331.18ZM547.883 1162.69L414.312 1029.11V973.126L380.186 939L414.312 904.874V848.886L547.617 715.581L547.883 715.314V653.194L653.194 547.883H715.314L848.886 414.312H904.874L939 380.186L973.126 414.312H1029.11L1162.42 547.617L1162.69 547.883H1224.81L1330.12 653.194V715.314L1463.69 848.886V904.874L1497.81 939L1463.69 973.126V1029.11L1330.38 1162.42L1330.12 1162.69V1224.81L1224.81 1330.12H1162.69L1029.11 1463.69H973.126L939 1497.81L904.874 1463.69H848.886L715.581 1330.38L715.314 1330.12H660.126C659.593 1328.52 658.26 1327.45 656.393 1327.45C655.327 1327.45 654.527 1327.98 653.727 1328.52C653.727 1327.45 653.461 1326.65 652.661 1325.85C651.328 1324.52 649.728 1324.52 648.129 1325.32L547.617 1224.81L547.883 1162.69Z" fill="#BA1818"></path>
    <path d="M1669.78 939L939.8 209.022L939 208.222L209.022 938.2L208.223 939L667.058 1397.84C666.258 1399.17 666.525 1401.03 667.591 1402.37C669.191 1403.97 671.324 1403.97 672.924 1402.37C674.523 1400.77 674.523 1398.64 672.924 1397.04C671.591 1395.7 669.991 1395.7 668.391 1396.5L211.155 939L939 211.155L1666.85 939L939 1666.84L679.056 1406.9C679.856 1405.57 679.589 1403.7 678.522 1402.37C676.923 1400.77 674.79 1400.77 673.19 1402.37C671.591 1403.97 671.591 1406.1 673.19 1407.7C674.523 1409.03 676.123 1409.03 677.723 1408.23L938.467 1668.98L939.267 1669.78L1668.98 939.8L1669.78 939Z" fill="#BA1818"></path>
    <path d="M336.461 1134.16C336.461 1132.03 334.862 1130.43 332.729 1130.43C330.596 1130.43 328.996 1132.03 328.996 1134.16C328.996 1135.76 330.063 1137.36 331.662 1137.89V1209.88L667.857 1546.07L668.124 1546.34H740.109C740.642 1547.94 741.975 1549 743.841 1549C745.974 1549 747.574 1547.4 747.574 1545.27C747.574 1543.14 745.974 1541.54 743.841 1541.54C742.241 1541.54 740.642 1542.6 740.109 1544.2H668.924L333.528 1209.08V1137.89C335.128 1137.36 336.461 1136.02 336.461 1134.16Z" fill="#BA1818"></path>
    <path d="M668.924 333.529H740.109C740.642 335.129 741.975 336.195 743.841 336.195C745.974 336.195 747.574 334.595 747.574 332.463C747.574 330.33 745.974 328.73 743.841 328.73C742.241 328.73 740.642 329.796 740.109 331.396H668.124L331.929 667.858L331.662 668.124V740.109C330.063 740.642 328.996 741.975 328.996 743.842C328.996 745.974 330.596 747.574 332.729 747.574C334.862 747.574 336.461 745.974 336.461 743.842C336.461 742.242 335.395 740.642 333.795 740.109V668.924L668.924 333.529Z" fill="#BA1818"></path>
    <path d="M1541.8 743.842C1541.8 745.974 1543.4 747.574 1545.54 747.574C1547.67 747.574 1549.27 745.974 1549.27 743.842C1549.27 742.242 1548.2 740.642 1546.6 740.109V668.124L1210.14 331.929L1209.88 331.663H1137.89C1137.36 330.063 1136.02 328.997 1134.16 328.997C1132.03 328.997 1130.43 330.596 1130.43 332.729C1130.43 334.862 1132.03 336.462 1134.16 336.462C1135.76 336.462 1137.36 335.395 1137.89 333.796H1209.08L1544.47 669.191V740.376C1542.87 740.642 1541.8 741.975 1541.8 743.842Z" fill="#BA1818"></path>
    <path d="M1545.54 1130.43C1543.4 1130.43 1541.8 1132.03 1541.8 1134.16C1541.8 1135.76 1542.87 1137.36 1544.47 1137.89V1209.08L1209.08 1544.47H1137.89C1137.36 1542.87 1136.02 1541.8 1134.16 1541.8C1132.03 1541.8 1130.43 1543.4 1130.43 1545.54C1130.43 1547.67 1132.03 1549.27 1134.16 1549.27C1135.76 1549.27 1137.36 1548.2 1137.89 1546.6H1209.88L1546.07 1210.41L1546.34 1210.14V1138.16C1547.94 1137.62 1549 1136.29 1549 1134.43C1549.27 1132.29 1547.4 1130.43 1545.54 1130.43Z" fill="#BA1818"></path>
    <path d="M286.072 1248.27C283.94 1248.27 282.34 1249.87 282.34 1252C282.34 1254.13 283.94 1255.73 286.072 1255.73C287.672 1255.73 289.272 1254.67 289.805 1253.07H352.725L625.2 1525.54V1588.46C623.6 1588.99 622.534 1590.33 622.534 1592.19C622.534 1594.33 624.134 1595.93 626.267 1595.93C628.399 1595.93 629.999 1594.33 629.999 1592.19C629.999 1590.59 628.933 1588.99 627.333 1588.46V1524.74L353.525 1251.2L353.258 1250.93H289.538C289.272 1249.33 287.672 1248.27 286.072 1248.27Z" fill="#BA1818"></path>
    <path d="M286.072 622.267C283.94 622.267 282.34 623.867 282.34 626C282.34 628.133 283.94 629.732 286.072 629.732C287.672 629.732 289.272 628.666 289.805 627.066H353.525L627.066 353.525L627.333 353.258V289.538C628.933 289.005 629.999 287.672 629.999 285.806C629.999 283.673 628.399 282.073 626.267 282.073C624.134 282.073 622.534 283.673 622.534 285.806C622.534 287.405 623.6 289.005 625.2 289.538V352.458L352.458 624.933H289.538C289.272 623.334 287.672 622.267 286.072 622.267Z" fill="#BA1818"></path>
    <path d="M1591.93 629.732C1594.06 629.732 1595.66 628.133 1595.66 626C1595.66 623.867 1594.06 622.267 1591.93 622.267C1590.33 622.267 1588.73 623.334 1588.2 624.933H1525.28L1253.07 352.458V289.538C1254.67 289.005 1255.73 287.672 1255.73 285.806C1255.73 283.673 1254.13 282.073 1252 282.073C1249.87 282.073 1248.27 283.673 1248.27 285.806C1248.27 287.405 1249.33 289.005 1250.93 289.538V353.258L1524.48 626.8L1524.74 627.066H1588.46C1588.73 628.666 1590.33 629.732 1591.93 629.732Z" fill="#BA1818"></path>
    <path d="M1591.93 1255.73C1594.06 1255.73 1595.66 1254.13 1595.66 1252C1595.66 1249.87 1594.06 1248.27 1591.93 1248.27C1590.33 1248.27 1588.73 1249.33 1588.2 1250.93H1524.48L1251.2 1524.48L1250.93 1524.74V1588.46C1249.33 1588.99 1248.27 1590.33 1248.27 1592.19C1248.27 1594.33 1249.87 1595.93 1252 1595.93C1254.13 1595.93 1255.73 1594.33 1255.73 1592.19C1255.73 1590.59 1254.67 1588.99 1253.07 1588.46V1525.54L1525.54 1253.07H1588.46C1588.73 1254.67 1590.33 1255.73 1591.93 1255.73Z" fill="#BA1818"></path>
    <path d="M470.567 1395.7C468.967 1394.1 466.835 1394.1 465.235 1395.7C463.635 1397.3 463.635 1399.44 465.235 1401.03C466.568 1402.37 468.168 1402.37 469.767 1401.57L476.433 1408.23C475.633 1409.57 475.899 1411.43 476.966 1412.77C478.565 1414.37 480.698 1414.37 482.298 1412.77C483.898 1411.17 483.898 1409.03 482.298 1407.43C480.965 1406.1 479.365 1406.1 477.766 1406.9L471.1 1400.24C471.9 1398.9 471.9 1397.04 470.567 1395.7Z" fill="#BA1818"></path>
    <path d="M482.298 470.566C483.898 468.967 483.898 466.834 482.298 465.234C480.698 463.635 478.565 463.635 476.966 465.234C475.633 466.567 475.633 468.167 476.433 469.767L469.767 476.432C468.434 475.632 466.568 475.899 465.235 476.965C463.635 478.565 463.635 480.698 465.235 482.297C466.835 483.897 468.967 483.897 470.567 482.297C471.9 480.964 471.9 479.365 471.1 477.765L477.766 471.1C479.099 471.899 480.965 471.899 482.298 470.566Z" fill="#BA1818"></path>
    <path d="M1407.43 482.297C1409.03 483.897 1411.17 483.897 1412.77 482.297C1414.37 480.698 1414.37 478.565 1412.77 476.965C1411.43 475.632 1409.83 475.632 1408.23 476.432L1401.57 469.767C1402.37 468.434 1402.1 466.567 1401.04 465.234C1399.44 463.635 1397.3 463.635 1395.7 465.234C1394.1 466.834 1394.1 468.967 1395.7 470.566C1397.04 471.899 1398.64 471.899 1400.24 471.1L1406.9 477.765C1406.1 479.098 1406.37 480.964 1407.43 482.297Z" fill="#BA1818"></path>
    <path d="M1395.7 1407.43C1394.1 1409.03 1394.1 1411.17 1395.7 1412.77C1397.3 1414.37 1399.44 1414.37 1401.04 1412.77C1402.37 1411.43 1402.37 1409.83 1401.57 1408.23L1408.23 1401.57C1409.57 1402.37 1411.43 1402.1 1412.77 1401.03C1414.37 1399.44 1414.37 1397.3 1412.77 1395.7C1411.17 1394.1 1409.03 1394.1 1407.43 1395.7C1406.1 1397.04 1406.1 1398.64 1406.9 1400.24L1400.24 1406.9C1398.9 1406.1 1397.04 1406.37 1395.7 1407.43Z" fill="#BA1818"></path>
    <path d="M577.211 1540.47H600.406C600.939 1542.07 602.272 1543.14 604.138 1543.14C606.271 1543.14 607.871 1541.54 607.871 1539.41C607.871 1537.27 606.271 1535.67 604.138 1535.67C602.539 1535.67 600.939 1536.74 600.406 1538.34H578.011L339.395 1299.72V1277.33C340.994 1276.79 342.061 1275.46 342.061 1273.6C342.061 1271.46 340.461 1269.86 338.328 1269.86C336.195 1269.86 334.596 1271.46 334.596 1273.6C334.596 1275.19 335.662 1276.79 337.262 1277.33V1300.52L576.677 1539.94L577.211 1540.47Z" fill="#BA1818"></path>
    <path d="M600.405 339.394C600.938 340.994 602.271 342.06 604.137 342.06C606.27 342.06 607.87 340.461 607.87 338.328C607.87 336.195 606.27 334.595 604.137 334.595C602.538 334.595 600.938 335.662 600.405 337.261H577.21L337.794 576.677L337.527 576.944V600.139C335.928 600.672 334.861 602.005 334.861 603.871C334.861 606.004 336.461 607.604 338.594 607.604C340.727 607.604 342.326 606.004 342.326 603.871C342.326 602.272 341.26 600.672 339.66 600.139V577.744L578.276 339.128H600.405V339.394Z" fill="#BA1818"></path>
    <path d="M1300.79 337.528H1277.59C1277.06 335.928 1275.73 334.862 1273.86 334.862C1271.73 334.862 1270.13 336.462 1270.13 338.595C1270.13 340.727 1271.73 342.327 1273.86 342.327C1275.46 342.327 1277.06 341.261 1277.59 339.661H1299.99L1538.61 578.277V600.672C1537.01 601.205 1535.94 602.538 1535.94 604.405C1535.94 606.537 1537.54 608.137 1539.67 608.137C1541.8 608.137 1543.4 606.537 1543.4 604.405C1543.4 602.805 1542.34 601.205 1540.74 600.672V577.477L1301.06 337.795L1300.79 337.528Z" fill="#BA1818"></path>
    <path d="M1277.59 1538.61C1277.06 1537.01 1275.73 1535.94 1273.86 1535.94C1271.73 1535.94 1270.13 1537.54 1270.13 1539.67C1270.13 1541.8 1271.73 1543.4 1273.86 1543.4C1275.46 1543.4 1277.06 1542.34 1277.59 1540.74H1300.79L1540.2 1301.32L1540.47 1301.06V1277.86C1542.07 1277.33 1543.14 1275.99 1543.14 1274.13C1543.14 1272 1541.54 1270.4 1539.4 1270.4C1537.27 1270.4 1535.67 1272 1535.67 1274.13C1535.67 1275.73 1536.74 1277.33 1538.34 1277.86V1300.26L1299.72 1538.87H1277.59V1538.61Z" fill="#BA1818"></path>
    <path d="M532.953 1554.07C530.82 1554.07 529.22 1555.67 529.22 1557.8C529.22 1559.93 530.82 1561.53 532.953 1561.53C534.553 1561.53 536.152 1560.47 536.686 1558.87H567.079L320.998 1312.79L319.399 1311.19V1341.58C317.799 1342.11 316.732 1343.45 316.732 1345.31C316.732 1347.45 318.332 1349.05 320.465 1349.05C322.598 1349.05 324.197 1347.45 324.197 1345.31C324.197 1343.71 323.131 1342.11 321.531 1341.58V1315.99L562.547 1557H536.952C536.152 1555.4 534.819 1554.07 532.953 1554.07Z" fill="#BA1818"></path>
    <path d="M323.932 532.953C323.932 530.82 322.332 529.221 320.199 529.221C318.066 529.221 316.467 530.82 316.467 532.953C316.467 534.553 317.533 536.152 319.133 536.686V567.079L565.214 320.998L566.814 319.399H536.42C535.887 317.799 534.554 316.733 532.687 316.733C530.555 316.733 528.955 318.332 528.955 320.465C528.955 322.598 530.555 324.198 532.687 324.198C534.287 324.198 535.887 323.131 536.42 321.532H562.015L320.999 562.547V536.952C322.865 536.152 323.932 534.819 323.932 532.953Z" fill="#BA1818"></path>
    <path d="M1345.05 323.931C1347.18 323.931 1348.78 322.331 1348.78 320.198C1348.78 318.066 1347.18 316.466 1345.05 316.466C1343.45 316.466 1341.85 317.532 1341.31 319.132H1310.92L1557 565.213L1558.6 566.813V536.419C1560.2 535.886 1561.27 534.553 1561.27 532.687C1561.27 530.554 1559.67 528.954 1557.53 528.954C1555.4 528.954 1553.8 530.554 1553.8 532.687C1553.8 534.286 1554.87 535.886 1556.47 536.419V562.014L1315.45 320.998H1341.05C1341.85 322.865 1343.18 323.931 1345.05 323.931Z" fill="#BA1818"></path>
    <path d="M1554.07 1345.05C1554.07 1347.18 1555.67 1348.78 1557.8 1348.78C1559.93 1348.78 1561.53 1347.18 1561.53 1345.05C1561.53 1343.45 1560.47 1341.85 1558.87 1341.31V1310.92L1312.79 1557L1311.19 1558.6H1341.58C1342.11 1560.2 1343.45 1561.27 1345.31 1561.27C1347.45 1561.27 1349.05 1559.67 1349.05 1557.53C1349.05 1555.4 1347.45 1553.8 1345.31 1553.8C1343.71 1553.8 1342.11 1554.87 1341.58 1556.47H1315.99L1557 1315.45V1341.05C1555.4 1341.85 1554.07 1343.18 1554.07 1345.05Z" fill="#BA1818"></path>
    <path d="M745.175 1738.3L612.403 1605.52L612.137 1605.26H545.484L272.742 1332.52V1265.86L139.704 1133.09C140.504 1131.76 140.237 1129.89 139.171 1128.56C137.571 1126.96 135.438 1126.96 133.838 1128.56C132.239 1130.16 132.239 1132.29 133.838 1133.89C135.171 1135.22 136.771 1135.22 138.371 1134.42L270.876 1266.93V1333.58L544.418 1607.12L544.684 1607.39H611.337L743.842 1739.9C743.042 1741.23 743.309 1743.1 744.375 1744.43C745.975 1746.03 748.108 1746.03 749.707 1744.43C751.307 1742.83 751.307 1740.7 749.707 1739.1C748.374 1737.5 746.508 1737.5 745.175 1738.3Z" fill="#BA1818"></path>
    <path d="M139.171 749.44C140.504 748.107 140.504 746.508 139.704 744.908L272.476 612.136L272.742 611.87V545.217L545.217 272.742H611.87L744.908 139.704C746.241 140.503 748.108 140.237 749.441 139.17C751.04 137.571 751.04 135.438 749.441 133.838C747.841 132.239 745.708 132.239 744.108 133.838C742.775 135.171 742.775 136.771 743.575 138.371L611.07 270.876H544.418L271.142 544.151L270.876 544.417V611.07L138.371 743.575C137.038 742.775 135.171 743.042 133.838 744.108C132.239 745.708 132.239 747.841 133.838 749.44C135.438 751.04 137.838 751.04 139.171 749.44Z" fill="#BA1818"></path>
    <path d="M1133.09 139.704L1265.86 272.475L1266.13 272.742H1332.78L1605.26 545.217V611.87L1738.3 744.908C1737.5 746.241 1737.76 748.107 1738.83 749.44C1740.43 751.04 1742.56 751.04 1744.16 749.44C1745.76 747.841 1745.76 745.708 1744.16 744.108C1742.83 742.775 1741.23 742.775 1739.63 743.575L1607.12 611.07V544.417L1333.85 271.142L1333.58 270.876H1266.93L1134.42 138.371C1135.22 137.037 1134.96 135.171 1133.89 133.838C1132.29 132.239 1130.16 132.239 1128.56 133.838C1126.96 135.438 1126.96 137.571 1128.56 139.17C1129.63 140.503 1131.49 140.77 1133.09 139.704Z" fill="#BA1818"></path>
    <path d="M1738.83 1128.56C1737.5 1129.89 1737.5 1131.49 1738.3 1133.09L1605.52 1265.86L1605.26 1266.13V1332.78L1332.52 1605.26H1265.86L1133.09 1738.3C1131.76 1737.5 1129.89 1737.76 1128.56 1738.83C1126.96 1740.43 1126.96 1742.56 1128.56 1744.16C1130.16 1745.76 1132.29 1745.76 1133.89 1744.16C1135.22 1742.83 1135.22 1741.23 1134.42 1739.63L1266.93 1607.12H1333.58L1607.12 1333.58L1607.39 1333.32V1266.66L1739.9 1134.16C1741.23 1134.96 1743.09 1134.69 1744.43 1133.63C1746.03 1132.03 1746.03 1129.89 1744.43 1128.29C1742.56 1126.96 1740.16 1126.96 1738.83 1128.56Z" fill="#BA1818"></path>
    <path d="M606.538 1654.85C604.938 1654.85 603.338 1655.91 602.805 1657.51H552.949L220.486 1324.78V1274.93C222.086 1274.4 223.153 1273.06 223.153 1271.2C223.153 1269.06 221.553 1267.46 219.42 1267.46C217.287 1267.46 215.688 1269.06 215.688 1271.2C215.688 1272.8 216.754 1274.4 218.354 1274.93V1325.58L551.883 1659.11L552.149 1659.38H602.805C603.338 1660.98 604.671 1662.05 606.538 1662.05C608.67 1662.05 610.27 1660.45 610.27 1658.31C610.27 1656.45 608.67 1654.85 606.538 1654.85Z" fill="#BA1818"></path>
    <path d="M218.886 552.149L218.619 552.416V603.072C217.02 603.605 215.953 604.938 215.953 606.804C215.953 608.937 217.553 610.537 219.686 610.537C221.819 610.537 223.418 608.937 223.418 606.804C223.418 605.204 222.352 603.605 220.752 603.072V553.215L553.215 220.486H603.071C603.604 222.086 604.937 223.152 606.803 223.152C608.936 223.152 610.536 221.553 610.536 219.42C610.536 217.287 608.936 215.687 606.803 215.687C605.204 215.687 603.604 216.754 603.071 218.353H552.415L218.886 552.149Z" fill="#BA1818"></path>
    <path d="M1271.46 223.419C1273.06 223.419 1274.66 222.353 1275.19 220.753H1325.05L1657.78 553.482V603.338C1656.18 603.871 1655.11 605.204 1655.11 607.071C1655.11 609.204 1656.71 610.803 1658.85 610.803C1660.98 610.803 1662.58 609.204 1662.58 607.071C1662.58 605.471 1661.51 603.871 1659.91 603.338V552.682L1325.85 218.887L1325.58 218.62H1274.93C1274.39 217.02 1273.06 215.954 1271.2 215.954C1269.06 215.954 1267.46 217.554 1267.46 219.687C1267.73 221.553 1269.33 223.419 1271.46 223.419Z" fill="#BA1818"></path>
    <path d="M1659.11 1325.85L1659.38 1325.58V1274.93C1660.98 1274.4 1662.05 1273.06 1662.05 1271.2C1662.05 1269.06 1660.45 1267.46 1658.31 1267.46C1656.18 1267.46 1654.58 1269.06 1654.58 1271.2C1654.58 1272.8 1655.65 1274.4 1657.25 1274.93V1324.78L1324.78 1657.51H1274.93C1274.39 1655.91 1273.06 1654.85 1271.2 1654.85C1269.06 1654.85 1267.46 1656.45 1267.46 1658.58C1267.46 1660.71 1269.06 1662.31 1271.2 1662.31C1272.8 1662.31 1274.39 1661.25 1274.93 1659.65H1325.58L1659.11 1325.85Z" fill="#BA1818"></path>
    <path d="M525.488 1680.71L197.292 1352.51C198.092 1351.18 197.825 1349.31 196.759 1347.98C195.159 1346.38 193.026 1346.38 191.426 1347.98C189.827 1349.58 189.827 1351.71 191.426 1353.31C192.759 1354.64 194.359 1354.64 195.959 1353.84L524.155 1682.04C523.356 1683.37 523.622 1685.24 524.689 1686.57C526.288 1688.17 528.421 1688.17 530.021 1686.57C531.621 1684.97 531.621 1682.84 530.021 1681.24C528.688 1680.18 526.822 1679.91 525.488 1680.71Z" fill="#BA1818"></path>
    <path d="M196.759 530.02C198.092 528.687 198.092 527.088 197.292 525.488L525.488 197.291C526.822 198.091 528.688 197.825 530.021 196.758C531.621 195.158 531.621 193.026 530.021 191.426C528.421 189.826 526.288 189.826 524.689 191.426C523.356 192.759 523.356 194.359 524.155 195.958L195.959 524.155C194.626 523.355 192.759 523.622 191.426 524.688C189.827 526.288 189.827 528.421 191.426 530.02C193.026 531.353 195.425 531.353 196.759 530.02Z" fill="#BA1818"></path>
    <path d="M1352.51 197.291L1680.71 525.488C1679.91 526.821 1680.17 528.687 1681.24 530.02C1682.84 531.62 1684.97 531.62 1686.57 530.02C1688.17 528.421 1688.17 526.288 1686.57 524.688C1685.24 523.355 1683.64 523.355 1682.04 524.155L1353.84 195.958C1354.64 194.625 1354.38 192.759 1353.31 191.426C1351.71 189.826 1349.58 189.826 1347.98 191.426C1346.38 193.026 1346.38 195.158 1347.98 196.758C1349.31 198.091 1351.18 198.091 1352.51 197.291Z" fill="#BA1818"></path>
    <path d="M1681.24 1347.98C1679.91 1349.31 1679.91 1350.91 1680.71 1352.51L1352.51 1680.71C1351.18 1679.91 1349.31 1680.18 1347.98 1681.24C1346.38 1682.84 1346.38 1684.97 1347.98 1686.57C1349.58 1688.17 1351.71 1688.17 1353.31 1686.57C1354.64 1685.24 1354.64 1683.64 1353.84 1682.04L1682.04 1353.84C1683.37 1354.64 1685.24 1354.38 1686.57 1353.31C1688.17 1351.71 1688.17 1349.58 1686.57 1347.98C1685.24 1346.65 1682.84 1346.65 1681.24 1347.98Z" fill="#BA1818"></path>
    <path d="M477.231 949.131V990.989L881.411 1395.17C880.612 1396.5 880.878 1398.37 881.945 1399.7C883.544 1401.3 885.677 1401.3 887.277 1399.7C887.277 1401.83 888.876 1403.43 891.009 1403.43C892.609 1403.43 894.209 1402.37 894.742 1400.77H928.868L938.999 1410.9L949.13 1400.77H990.988L1400.23 991.522L1400.5 991.255V949.398L1410.63 939.267L1400.5 929.135V887.278L991.255 477.498L990.988 477.232H949.13L938.999 467.1L928.868 477.232H887.01L477.497 886.744L477.231 887.011V928.869L467.1 939L477.231 949.131ZM479.364 929.669V887.811L887.81 479.365H929.668L938.999 470.033L948.33 479.365H990.188L1398.63 887.811V929.669L1407.97 939L1398.63 948.331V990.189L990.188 1398.64H948.33L938.999 1407.97L929.668 1398.64H894.742C894.209 1397.04 892.876 1395.97 891.009 1395.97C889.943 1395.97 889.143 1396.5 888.343 1397.04C888.343 1395.97 888.077 1395.17 887.277 1394.37C885.944 1393.04 884.344 1393.04 882.744 1393.84L479.364 990.189V948.331L470.032 939L479.364 929.669Z" fill="#BA1818"></path>
    <path d="M873.946 1345.31V1306.39L754.772 1187.21L754.505 1186.95H717.98L691.052 1160.02V1123.49L571.877 1004.32L571.611 1004.05H532.686C532.153 1002.45 530.819 1001.39 528.953 1001.39C526.82 1001.39 525.221 1002.99 525.221 1005.12C525.221 1007.25 526.82 1008.85 528.953 1008.85C530.553 1008.85 532.153 1007.79 532.686 1006.19H570.544L688.919 1124.56V1161.09L717.18 1189.08H753.705L872.08 1307.45V1345.31C870.48 1345.85 869.414 1347.18 869.414 1349.05C869.414 1351.18 871.014 1352.78 873.147 1352.78C875.279 1352.78 876.879 1351.18 876.879 1349.05C876.879 1347.18 875.546 1345.85 873.946 1345.31Z" fill="#BA1818"></path>
    <path d="M529.22 876.88C530.82 876.88 532.419 875.813 532.952 874.214H571.877L691.052 755.039L691.319 754.773V718.247L718.246 691.319H754.505L873.68 572.145L873.946 571.878V532.953C875.546 532.42 876.612 531.087 876.612 529.221C876.612 527.088 875.013 525.488 872.88 525.488C870.747 525.488 869.147 527.088 869.147 529.221C869.147 530.82 870.214 532.42 871.814 532.953V570.812L753.439 689.186H717.18L688.919 717.181V753.706L570.544 872.081H532.686C532.153 870.481 530.819 869.415 528.953 869.415C526.82 869.415 525.221 871.014 525.221 873.147C525.487 875.014 527.087 876.88 529.22 876.88Z" fill="#BA1818"></path>
    <path d="M1004.05 532.686V571.612L1123.23 690.786L1123.49 691.053H1160.02L1186.95 717.98V754.506L1306.12 873.681L1306.39 873.947H1345.31C1345.85 875.547 1347.18 876.613 1349.05 876.613C1351.18 876.613 1352.78 875.014 1352.78 872.881C1352.78 870.748 1351.18 869.148 1349.05 869.148C1347.45 869.148 1345.85 870.215 1345.31 871.814H1307.45L1189.08 753.706V717.181L1161.09 689.186H1124.56L1006.19 570.812V532.953C1007.79 532.42 1008.85 531.087 1008.85 529.221C1008.85 527.088 1007.25 525.488 1005.12 525.488C1002.99 525.488 1001.39 527.088 1001.39 529.221C1001.39 530.82 1002.45 532.42 1004.05 532.686Z" fill="#BA1818"></path>
    <path d="M1348.78 1001.39C1347.18 1001.39 1345.58 1002.45 1345.05 1004.05H1306.12L1186.95 1123.23L1186.68 1123.49V1160.02L1159.75 1186.95H1123.23L1004.05 1306.12L1003.79 1306.39V1345.31C1002.19 1345.85 1001.12 1347.18 1001.12 1349.05C1001.12 1351.18 1002.72 1352.78 1004.85 1352.78C1006.98 1352.78 1008.58 1351.18 1008.58 1349.05C1008.58 1347.45 1007.52 1345.85 1005.92 1345.31V1307.45L1124.29 1189.08H1160.82L1188.81 1161.09V1124.56L1307.19 1006.19H1345.05C1345.58 1007.79 1346.91 1008.85 1348.78 1008.85C1350.91 1008.85 1352.51 1007.25 1352.51 1005.12C1352.78 1002.99 1350.91 1001.39 1348.78 1001.39Z" fill="#BA1818"></path>
    <path d="M1208.01 1507.95L1507.68 1208.28L1507.94 1208.01V1140.02L1708.17 939.8L1708.97 939L1507.94 737.976V669.991L1208.28 370.588L1208.01 370.321H1140.02L939.799 170.097L939 169.297L737.976 370.321H669.99L370.587 669.724L370.321 669.991V737.976L170.097 938.2L169.297 939L370.321 1140.02V1208.01L664.658 1502.35C663.858 1503.68 664.125 1505.55 665.191 1506.88C666.791 1508.48 668.924 1508.48 670.523 1506.88C670.523 1509.01 672.123 1510.61 674.256 1510.61C675.856 1510.61 677.455 1509.54 677.988 1507.95H738.242L938.466 1708.17L939.266 1708.97L1140.29 1507.95H1208.01ZM939 1706.04L739.042 1506.08L738.776 1505.81H677.722C677.189 1504.21 675.856 1503.15 673.989 1503.15C672.923 1503.15 672.123 1503.68 671.323 1504.21C671.323 1503.15 671.057 1502.35 670.257 1501.55C668.924 1500.21 667.324 1500.21 665.724 1501.01L372.187 1207.21V1139.22L171.963 939L371.92 739.043L372.187 738.776V670.79L670.79 372.187H738.776L939 171.963L1138.96 371.921L1139.22 372.187H1207.21L1505.81 670.79V738.776L1706.04 939L1506.08 1138.96L1505.81 1139.22V1207.21L1207.21 1505.81H1139.22L939 1706.04Z" fill="#BA1818"></path>
    <path d="M699.851 1469.55L408.446 1178.15C409.246 1176.82 408.979 1174.95 407.913 1173.62C406.313 1172.02 404.18 1172.02 402.581 1173.62C400.981 1175.22 400.981 1177.35 402.581 1178.95C403.914 1180.28 405.513 1180.28 407.113 1179.48L698.518 1471.15C697.718 1472.49 697.984 1474.35 699.051 1475.69C700.65 1477.29 702.783 1477.29 704.383 1475.69C705.983 1474.09 705.983 1471.95 704.383 1470.35C703.317 1469.02 701.45 1468.75 699.851 1469.55Z" fill="#BA1818"></path>
    <path d="M407.913 704.383C409.246 703.05 409.246 701.451 408.446 699.851L700.117 408.18C701.45 408.98 703.317 408.713 704.65 407.647C706.249 406.047 706.249 403.914 704.65 402.314C703.05 400.715 700.917 400.715 699.317 402.314C697.984 403.647 697.984 405.247 698.784 406.847L407.113 698.518C405.78 697.718 403.914 697.985 402.581 699.051C400.981 700.651 400.981 702.784 402.581 704.383C403.914 705.983 406.313 705.983 407.913 704.383Z" fill="#BA1818"></path>
    <path d="M1178.15 408.446L1469.82 700.118C1469.02 701.451 1469.29 703.317 1470.35 704.65C1471.95 706.25 1474.09 706.25 1475.68 704.65C1477.28 703.05 1477.28 700.917 1475.68 699.318C1474.35 697.985 1472.75 697.985 1471.15 698.784L1179.48 407.113C1180.28 405.78 1180.01 403.914 1178.95 402.581C1177.35 400.981 1175.22 400.981 1173.62 402.581C1172.02 404.181 1172.02 406.313 1173.62 407.913C1174.95 408.98 1176.55 409.246 1178.15 408.446Z" fill="#BA1818"></path>
    <path d="M1471.15 1179.48C1472.49 1180.28 1474.35 1180.02 1475.68 1178.95C1477.28 1177.35 1477.28 1175.22 1475.68 1173.62C1474.09 1172.02 1471.95 1172.02 1470.35 1173.62C1469.02 1174.95 1469.02 1176.55 1469.82 1178.15L1178.15 1469.55C1176.82 1468.75 1174.95 1469.02 1173.62 1470.09C1172.02 1471.69 1172.02 1473.82 1173.62 1475.42C1175.22 1477.02 1177.35 1477.02 1178.95 1475.42C1180.28 1474.09 1180.28 1472.49 1179.48 1470.89L1471.15 1179.48Z" fill="#BA1818"></path>
    <path d="M1044.31 1137.09C1045.91 1135.49 1045.91 1133.36 1044.31 1131.76C1042.71 1130.16 1040.58 1130.16 1038.98 1131.76C1037.65 1133.09 1037.65 1134.69 1038.45 1136.29L939 1235.74L839.821 1136.29C840.621 1134.96 840.354 1133.09 839.288 1131.76C837.688 1130.16 835.555 1130.16 833.956 1131.76C832.356 1133.36 832.356 1135.49 833.956 1137.09C835.289 1138.42 836.888 1138.42 838.488 1137.62L938.467 1237.6L939.267 1238.4L1040.05 1137.62C1041.11 1138.42 1042.98 1138.42 1044.31 1137.09Z" fill="#BA1818"></path>
    <path d="M740.908 1044.31C742.508 1045.91 744.641 1045.91 746.241 1044.31C747.84 1042.71 747.84 1040.58 746.241 1038.98C744.908 1037.65 743.308 1037.65 741.708 1038.45L642.529 939L741.975 839.554C743.308 840.354 745.174 840.088 746.507 839.021C748.107 837.422 748.107 835.289 746.507 833.689C744.908 832.089 742.775 832.089 741.175 833.689C739.842 835.022 739.842 836.622 740.642 838.221L640.663 938.2L639.863 939L740.642 1039.78C739.575 1041.11 739.842 1042.98 740.908 1044.31Z" fill="#BA1818"></path>
    <path d="M833.69 740.909C832.09 742.508 832.09 744.641 833.69 746.241C835.29 747.841 837.423 747.841 839.022 746.241C840.355 744.908 840.355 743.308 839.555 741.709L939.001 642.263L1038.45 741.709C1037.65 743.042 1037.91 744.908 1038.98 746.241C1040.58 747.841 1042.71 747.841 1044.31 746.241C1045.91 744.641 1045.91 742.508 1044.31 740.909C1042.98 739.576 1041.38 739.576 1039.78 740.376L939.801 640.397L939.001 639.597L838.222 740.376C836.889 739.576 835.023 739.842 833.69 740.909Z" fill="#BA1818"></path>
    <path d="M1137.09 833.956C1135.49 832.356 1133.36 832.356 1131.76 833.956C1130.16 835.555 1130.16 837.688 1131.76 839.288C1133.09 840.621 1134.69 840.621 1136.29 839.821L1235.74 939.267L1136.29 1038.71C1134.96 1037.91 1133.09 1038.18 1131.76 1039.25C1130.16 1040.84 1130.16 1042.98 1131.76 1044.58C1133.36 1046.18 1135.49 1046.18 1137.09 1044.58C1138.42 1043.24 1138.42 1041.64 1137.62 1040.05L1237.6 940.066L1238.4 939.267L1137.62 838.488C1138.42 836.888 1138.42 835.022 1137.09 833.956Z" fill="#BA1818"></path>
    <path d="M679.322 1378.37H708.116L828.091 1498.35L828.357 1498.61H896.343L939.267 1541.54L982.191 1498.61H1050.18L1170.42 1378.37H1199.21L1275.46 1302.12C1276.8 1302.92 1278.66 1302.66 1279.99 1301.59C1281.59 1299.99 1281.59 1297.86 1279.99 1296.26C1278.39 1294.66 1276.26 1294.66 1274.66 1296.26C1273.33 1297.59 1273.33 1299.19 1274.13 1300.79L1198.68 1376.24H1169.88L1049.64 1496.48H981.658L939.534 1538.61L897.676 1496.75L897.409 1496.48H829.424L709.449 1376.51L709.183 1376.24H680.389L604.405 1301.06C605.205 1299.72 604.938 1297.86 603.872 1296.52C602.272 1294.92 600.139 1294.92 598.54 1296.52C596.94 1298.12 596.94 1300.26 598.54 1301.86C599.873 1303.19 601.472 1303.19 603.072 1302.39L679.056 1378.37H679.322Z" fill="#BA1818"></path>
    <path d="M577.211 1273.6L501.76 1198.14V1169.35L381.252 1049.11V981.124L339.128 939L380.986 897.142L381.252 896.876V828.89L501.227 708.916L501.493 708.649V679.855L576.944 604.405C578.277 605.204 580.143 604.938 581.476 603.871C583.076 602.272 583.076 600.139 581.476 598.539C579.877 596.94 577.744 596.94 576.144 598.539C574.811 599.872 574.811 601.472 575.611 603.072L499.627 679.055L499.361 679.322V708.116L379.386 828.09L379.119 828.357V896.342L336.195 939.267L379.119 982.191V1050.18L499.361 1170.42V1199.21L575.611 1275.46C574.811 1276.79 575.078 1278.66 576.144 1279.99C577.744 1281.59 579.877 1281.59 581.476 1279.99C583.076 1278.39 583.076 1276.26 581.476 1274.66C580.41 1273.06 578.544 1272.8 577.211 1273.6Z" fill="#BA1818"></path>
    <path d="M603.872 581.476C605.205 580.143 605.205 578.543 604.405 576.944L679.856 501.493H708.649L828.891 381.252H896.876L939 339.128L980.858 380.986L981.125 381.252H1049.11L1169.08 501.227L1169.35 501.493H1198.15L1273.6 576.944C1272.8 578.277 1273.06 580.143 1274.13 581.476C1275.73 583.076 1277.86 583.076 1279.46 581.476C1281.06 579.877 1281.06 577.744 1279.46 576.144C1278.13 574.811 1276.53 574.811 1274.93 575.611L1198.95 499.627L1198.68 499.36H1169.88L1049.91 379.386L1049.64 379.119H981.658L938.734 336.195L895.81 379.119H827.824L707.583 499.36H678.789L602.539 575.611C601.206 574.811 599.339 575.078 598.006 576.144C596.407 577.744 596.407 579.877 598.006 581.476C600.139 583.076 602.539 583.076 603.872 581.476Z" fill="#BA1818"></path>
    <path d="M1301.06 604.405L1376.51 679.855V708.649L1496.75 828.89V896.876L1538.87 939L1497.01 980.858L1496.75 981.124V1049.11L1376.77 1169.08L1376.51 1169.35V1198.14L1301.06 1273.6C1299.72 1272.8 1297.86 1273.06 1296.52 1274.13C1294.92 1275.73 1294.92 1277.86 1296.52 1279.46C1298.12 1281.06 1300.26 1281.06 1301.86 1279.46C1303.19 1278.13 1303.19 1276.53 1302.39 1274.93L1378.37 1198.94L1378.64 1198.68V1169.88L1498.61 1049.91L1498.88 1049.64V981.658L1541.8 938.733L1498.88 895.809V827.824L1378.37 707.849V679.055L1302.12 602.805C1302.92 601.472 1302.66 599.606 1301.59 598.273C1299.99 596.673 1297.86 596.673 1296.26 598.273C1294.66 599.872 1294.66 602.005 1296.26 603.605C1297.59 605.204 1299.46 605.204 1301.06 604.405Z" fill="#BA1818"></path>
    <path d="M915.005 1560.73C913.405 1560.73 911.806 1561.8 911.273 1563.4H866.749L744.108 1440.76C744.908 1439.43 744.641 1437.56 743.575 1436.23C741.975 1434.63 739.842 1434.63 738.243 1436.23C736.643 1437.83 736.643 1439.96 738.243 1441.56C739.576 1442.89 741.175 1442.89 742.775 1442.09L865.682 1565L865.949 1565.27H911.273C911.806 1566.87 913.139 1567.93 915.005 1567.93C917.138 1567.93 918.738 1566.33 918.738 1564.2C918.738 1562.33 917.138 1560.73 915.005 1560.73Z" fill="#BA1818"></path>
    <path d="M1564.47 959.262C1562.33 959.262 1560.73 960.862 1560.73 962.995C1560.73 964.595 1561.8 966.194 1563.4 966.727V1011.25L1440.76 1133.89C1439.43 1133.09 1437.56 1133.36 1436.23 1134.42C1434.63 1136.02 1434.63 1138.16 1436.23 1139.76C1437.83 1141.36 1439.96 1141.36 1441.56 1139.76C1442.89 1138.42 1442.89 1136.82 1442.09 1135.22L1565 1012.32L1565.27 1012.05V966.727C1566.87 966.194 1567.93 964.861 1567.93 962.995C1568.2 960.862 1566.33 959.262 1564.47 959.262Z" fill="#BA1818"></path>
    <path d="M962.994 317.532C964.594 317.532 966.194 316.466 966.727 314.866H1011.25L1133.89 437.507C1133.09 438.84 1133.36 440.706 1134.42 442.039C1136.02 443.639 1138.16 443.639 1139.76 442.039C1141.36 440.439 1141.36 438.307 1139.76 436.707C1138.42 435.374 1136.82 435.374 1135.22 436.174L1012.32 313.267L1012.05 313H966.727C966.194 311.4 964.861 310.334 962.994 310.334C960.861 310.334 959.262 311.934 959.262 314.066C959.262 315.666 960.861 317.532 962.994 317.532Z" fill="#BA1818"></path>
    <path d="M313.532 918.738C315.665 918.738 317.265 917.138 317.265 915.005C317.265 913.405 316.199 911.806 314.599 911.273V866.749L437.239 744.108C438.573 744.908 440.439 744.641 441.772 743.575C443.371 741.975 443.371 739.842 441.772 738.243C440.172 736.643 438.039 736.643 436.44 738.243C435.107 739.576 435.107 741.175 435.906 742.775L312.999 865.682L312.733 865.949V911.273C311.133 911.806 310.067 913.139 310.067 915.005C309.8 917.138 311.666 918.738 313.532 918.738Z" fill="#BA1818"></path>
    <path d="M437.24 1133.63L314.6 1010.98V966.461C316.199 965.928 317.266 964.595 317.266 962.728C317.266 960.595 315.666 958.996 313.533 958.996C311.4 958.996 309.801 960.595 309.801 962.728C309.801 964.328 310.867 965.928 312.467 966.461V1011.78L435.641 1134.96C434.841 1136.29 435.107 1138.16 436.174 1139.49C437.774 1141.09 439.906 1141.09 441.506 1139.49C443.106 1137.89 443.106 1135.76 441.506 1134.16C440.44 1133.09 438.573 1132.83 437.24 1133.63Z" fill="#BA1818"></path>
    <path d="M1134.42 1436.23C1133.09 1437.56 1133.09 1439.16 1133.89 1440.76L1011.25 1563.4H966.727C966.194 1561.8 964.861 1560.73 962.994 1560.73C960.861 1560.73 959.262 1562.33 959.262 1564.47C959.262 1566.6 960.861 1568.2 962.994 1568.2C964.594 1568.2 966.194 1567.13 966.727 1565.53H1012.05L1135.22 1442.36C1136.56 1443.16 1138.42 1442.89 1139.76 1441.83C1141.36 1440.23 1141.36 1438.09 1139.76 1436.49C1138.16 1434.89 1135.76 1434.89 1134.42 1436.23Z" fill="#BA1818"></path>
    <path d="M1440.76 744.375L1563.4 867.015V911.539C1561.8 912.072 1560.73 913.405 1560.73 915.272C1560.73 917.405 1562.33 919.004 1564.47 919.004C1566.6 919.004 1568.2 917.405 1568.2 915.272C1568.2 913.672 1567.13 912.072 1565.53 911.539V866.215L1442.36 743.042C1443.16 741.709 1442.89 739.842 1441.83 738.509C1440.23 736.91 1438.09 736.91 1436.49 738.509C1434.9 740.109 1434.9 742.242 1436.49 743.842C1437.56 744.908 1439.43 745.175 1440.76 744.375Z" fill="#BA1818"></path>
    <path d="M743.841 441.773C745.174 440.44 745.174 438.84 744.374 437.24L867.014 314.6H911.538C912.071 316.199 913.404 317.266 915.271 317.266C917.404 317.266 919.003 315.666 919.003 313.533C919.003 311.4 917.404 309.801 915.271 309.801C913.671 309.801 912.071 310.867 911.538 312.467H866.214L743.041 435.641C741.708 434.841 739.841 435.107 738.508 436.174C736.909 437.773 736.909 439.906 738.508 441.506C739.841 443.106 742.241 443.106 743.841 441.773Z" fill="#BA1818"></path>
    <path d="M865.948 1802.82L650.528 1587.4V1558.6C652.127 1558.07 653.194 1556.74 653.194 1554.87C653.194 1552.74 651.594 1551.14 649.461 1551.14C647.328 1551.14 645.729 1552.74 645.729 1554.87C645.729 1556.47 646.795 1558.07 648.395 1558.6V1588.2L864.349 1804.15C863.549 1805.48 863.815 1807.35 864.882 1808.68C866.481 1810.28 868.614 1810.28 870.214 1808.68C871.814 1807.08 871.814 1804.95 870.214 1803.35C869.148 1802.28 867.281 1802.02 865.948 1802.82Z" fill="#BA1818"></path>
    <path d="M1803.35 1007.52C1802.02 1008.85 1802.02 1010.45 1802.82 1012.05L1587.4 1227.47H1558.6C1558.07 1225.87 1556.74 1224.81 1554.87 1224.81C1552.74 1224.81 1551.14 1226.41 1551.14 1228.54C1551.14 1230.67 1552.74 1232.27 1554.87 1232.27C1556.47 1232.27 1558.07 1231.2 1558.6 1229.6H1588.2L1804.15 1013.65C1805.48 1014.45 1807.35 1014.18 1808.68 1013.12C1810.28 1011.52 1810.28 1009.39 1808.68 1007.79C1807.35 1006.19 1804.95 1006.19 1803.35 1007.52Z" fill="#BA1818"></path>
    <path d="M1012.05 75.184L1227.47 290.605V319.399C1225.87 319.932 1224.81 321.265 1224.81 323.131C1224.81 325.264 1226.41 326.864 1228.54 326.864C1230.67 326.864 1232.27 325.264 1232.27 323.131C1232.27 321.532 1231.2 319.932 1229.61 319.399V289.805L1013.65 73.851C1014.45 72.5179 1014.18 70.6516 1013.12 69.3186C1011.52 67.7189 1009.39 67.7189 1007.79 69.3186C1006.19 70.9182 1006.19 73.0511 1007.79 74.6508C1008.85 75.7172 1010.72 75.9838 1012.05 75.184Z" fill="#BA1818"></path>
    <path d="M74.6511 870.481C75.9841 869.148 75.9841 867.549 75.1843 865.949L290.605 650.528H319.399C319.932 652.128 321.265 653.194 323.131 653.194C325.264 653.194 326.864 651.595 326.864 649.462C326.864 647.329 325.264 645.729 323.131 645.729C321.532 645.729 319.932 646.796 319.399 648.395H289.805L73.8513 864.349C72.5182 863.549 70.6519 863.816 69.3189 864.882C67.7192 866.482 67.7192 868.615 69.3189 870.215C70.6519 871.814 73.0514 871.814 74.6511 870.481Z" fill="#BA1818"></path>
    <path d="M289.539 1229.34L289.805 1229.6H319.399C319.932 1231.2 321.265 1232.27 323.131 1232.27C325.264 1232.27 326.864 1230.67 326.864 1228.54C326.864 1226.41 325.264 1224.81 323.131 1224.81C321.532 1224.81 319.932 1225.87 319.399 1227.47H290.605L75.1843 1012.05C75.9841 1010.72 75.7175 1008.85 74.6511 1007.52C73.0514 1005.92 70.9185 1005.92 69.3189 1007.52C67.7192 1009.12 67.7192 1011.25 69.3189 1012.85C70.6519 1014.18 72.2516 1014.18 73.8513 1013.38L289.539 1229.34Z" fill="#BA1818"></path>
    <path d="M1229.34 1588.73L1229.6 1588.46V1558.87C1231.2 1558.33 1232.27 1557 1232.27 1555.14C1232.27 1553 1230.67 1551.4 1228.54 1551.4C1226.4 1551.4 1224.81 1553 1224.81 1555.14C1224.81 1556.73 1225.87 1558.33 1227.47 1558.87V1587.66L1012.05 1803.08C1010.72 1802.28 1008.85 1802.55 1007.52 1803.62C1005.92 1805.22 1005.92 1807.35 1007.52 1808.95C1009.12 1810.55 1011.25 1810.55 1012.85 1808.95C1014.18 1807.61 1014.18 1806.02 1013.38 1804.42L1229.34 1588.73Z" fill="#BA1818"></path>
    <path d="M1588.73 648.928L1588.46 648.662H1558.87C1558.33 647.062 1557 645.996 1555.13 645.996C1553 645.996 1551.4 647.595 1551.4 649.728C1551.4 651.861 1553 653.461 1555.13 653.461C1556.73 653.461 1558.33 652.394 1558.87 650.795H1587.66L1803.08 866.215C1802.28 867.549 1802.55 869.415 1803.62 870.748C1805.21 872.348 1807.35 872.348 1808.95 870.748C1810.55 869.148 1810.55 867.015 1808.95 865.416C1807.61 864.083 1806.01 864.083 1804.42 864.882L1588.73 648.928Z" fill="#BA1818"></path>
    <path d="M648.929 289.538L648.662 289.805V319.399C647.063 319.932 645.996 321.265 645.996 323.131C645.996 325.264 647.596 326.864 649.729 326.864C651.861 326.864 653.461 325.264 653.461 323.131C653.461 321.532 652.395 319.932 650.795 319.399V290.605L866.216 75.184C867.549 75.9838 869.415 75.7172 870.748 74.6508C872.348 73.0511 872.348 70.9182 870.748 69.3186C869.149 67.7189 867.016 67.7189 865.416 69.3186C864.083 70.6516 864.083 72.2513 864.883 73.851L648.929 289.538Z" fill="#BA1818"></path>
    <path d="M912.606 1870.8V1743.9L741.709 1573L741.442 1572.73H689.453C688.92 1571.13 687.587 1570.07 685.721 1570.07C683.588 1570.07 681.988 1571.67 681.988 1573.8C681.988 1575.93 683.588 1577.53 685.721 1577.53C687.321 1577.53 688.92 1576.46 689.453 1574.86H740.376L910.473 1744.96V1871.07C908.873 1871.6 907.807 1872.93 907.807 1874.8C907.807 1876.93 909.406 1878.53 911.539 1878.53C913.672 1878.53 915.272 1876.93 915.272 1874.8C915.272 1872.67 914.205 1871.07 912.606 1870.8Z" fill="#BA1818"></path>
    <path d="M1874.27 962.728C1872.67 962.728 1871.07 963.795 1870.53 965.394H1743.63L1572.73 1136.29L1572.46 1136.56V1188.55C1570.87 1189.08 1569.8 1190.41 1569.8 1192.28C1569.8 1194.41 1571.4 1196.01 1573.53 1196.01C1575.66 1196.01 1577.26 1194.41 1577.26 1192.28C1577.26 1190.68 1576.2 1189.08 1574.6 1188.55V1137.62L1744.69 967.527H1870.8C1871.33 969.127 1872.67 970.193 1874.53 970.193C1876.67 970.193 1878.27 968.594 1878.27 966.461C1878 964.328 1876.4 962.728 1874.27 962.728Z" fill="#BA1818"></path>
    <path d="M965.395 7.46508V134.371L1136.29 305.268L1136.56 305.535H1188.55C1189.08 307.135 1190.41 308.201 1192.28 308.201C1194.41 308.201 1196.01 306.601 1196.01 304.468C1196.01 302.336 1194.41 300.736 1192.28 300.736C1190.68 300.736 1189.08 301.802 1188.55 303.402H1137.62L967.527 133.305V7.46508C969.127 6.93186 970.194 5.59881 970.194 3.73254C970.194 1.59966 968.594 0 966.461 0C964.328 0 962.729 1.59966 962.729 3.73254C962.729 5.59881 963.795 6.93186 965.395 7.46508Z" fill="#BA1818"></path>
    <path d="M3.73254 915.272C5.3322 915.272 6.93186 914.205 7.46508 912.606H134.371L305.268 741.709L305.535 741.442V689.453C307.135 688.92 308.201 687.587 308.201 685.721C308.201 683.588 306.601 681.988 304.468 681.988C302.336 681.988 300.736 683.588 300.736 685.721C300.736 687.32 301.802 688.92 303.402 689.453V740.376L133.305 910.473H7.46508C6.93186 908.873 5.59881 907.807 3.73254 907.807C1.59966 907.807 0 909.406 0 911.539C0 913.672 1.59966 915.272 3.73254 915.272Z" fill="#BA1818"></path>
    <path d="M133.572 967.527L303.669 1137.62V1188.55C302.069 1189.08 301.003 1190.41 301.003 1192.28C301.003 1194.41 302.602 1196.01 304.735 1196.01C306.868 1196.01 308.468 1194.41 308.468 1192.28C308.468 1190.68 307.401 1189.08 305.802 1188.55V1136.56L134.905 965.661L134.638 965.394H7.46508C6.93186 963.795 5.59881 962.728 3.73254 962.728C1.59966 962.728 0 964.328 0 966.461C0 968.594 1.59966 970.193 3.73254 970.193C5.3322 970.193 6.93186 969.127 7.46508 967.527H133.572Z" fill="#BA1818"></path>
    <path d="M967.527 1870.8V1744.7L1137.62 1574.6H1188.55C1189.08 1576.2 1190.41 1577.26 1192.28 1577.26C1194.41 1577.26 1196.01 1575.66 1196.01 1573.53C1196.01 1571.4 1194.41 1569.8 1192.28 1569.8C1190.68 1569.8 1189.08 1570.87 1188.55 1572.47H1136.56L965.661 1743.36L965.395 1743.63V1870.53C963.795 1871.07 962.729 1872.4 962.729 1874.27C962.729 1876.4 964.328 1878 966.461 1878C968.594 1878 970.194 1876.4 970.194 1874.27C970.194 1872.67 969.127 1871.07 967.527 1870.8Z" fill="#BA1818"></path>
    <path d="M1744.43 910.473L1574.33 740.376V689.453C1575.93 688.92 1577 687.587 1577 685.721C1577 683.588 1575.4 681.988 1573.27 681.988C1571.13 681.988 1569.53 683.588 1569.53 685.721C1569.53 687.32 1570.6 688.92 1572.2 689.453V741.442L1743.1 912.339L1743.36 912.606H1870.27C1870.8 914.205 1872.14 915.272 1874 915.272C1876.13 915.272 1877.73 913.672 1877.73 911.539C1877.73 909.406 1876.13 907.807 1874 907.807C1872.4 907.807 1870.8 908.873 1870.27 910.473H1744.43Z" fill="#BA1818"></path>
    <path d="M910.473 7.46507V133.572L740.376 303.669H689.453C688.92 302.069 687.587 301.003 685.721 301.003C683.588 301.003 681.988 302.602 681.988 304.735C681.988 306.868 683.588 308.468 685.721 308.468C687.321 308.468 688.92 307.401 689.453 305.802H741.442L912.339 134.905L912.606 134.638V7.73168C914.205 7.19846 915.272 5.86541 915.272 3.99914C915.272 1.86626 913.672 0.266602 911.539 0.266602C909.406 0.266602 907.807 1.86626 907.807 3.99914C907.807 5.5988 908.873 6.93185 910.473 7.46507Z" fill="#BA1818"></path>
    <path d="M873.68 1766.29L711.581 1604.19C712.381 1602.86 712.114 1600.99 711.048 1599.66C709.448 1598.06 707.315 1598.06 705.715 1599.66C704.116 1601.26 704.116 1603.39 705.715 1604.99C707.048 1606.32 708.648 1606.32 710.248 1605.52L872.347 1767.62C871.547 1768.96 871.813 1770.82 872.88 1772.16C874.479 1773.76 876.612 1773.76 878.212 1772.16C879.812 1770.56 879.812 1768.42 878.212 1766.82C877.145 1765.76 875.279 1765.49 873.68 1766.29Z" fill="#BA1818"></path>
    <path d="M1599.66 1166.95C1598.06 1168.55 1598.06 1170.68 1599.66 1172.28C1601.26 1173.88 1603.39 1173.88 1604.99 1172.28C1606.32 1170.95 1606.32 1169.35 1605.52 1167.75L1767.62 1005.65C1768.96 1006.45 1770.82 1006.19 1772.16 1005.12C1773.75 1003.52 1773.75 1001.39 1772.16 999.787C1770.56 998.187 1768.42 998.187 1766.82 999.787C1765.49 1001.12 1765.49 1002.72 1766.29 1004.32L1604.19 1166.42C1602.59 1165.62 1600.99 1165.88 1599.66 1166.95Z" fill="#BA1818"></path>
    <path d="M1004.32 111.71L1166.42 273.808C1165.62 275.141 1165.89 277.008 1166.95 278.341C1168.55 279.94 1170.68 279.94 1172.28 278.341C1173.88 276.741 1173.88 274.608 1172.28 273.008C1170.95 271.675 1169.35 271.675 1167.75 272.475L1005.65 110.376C1006.45 109.043 1006.19 107.177 1005.12 105.844C1003.52 104.244 1001.39 104.244 999.788 105.844C998.188 107.444 998.188 109.577 999.788 111.176C1001.12 112.509 1002.72 112.509 1004.32 111.71Z" fill="#BA1818"></path>
    <path d="M278.341 711.049C279.941 709.449 279.941 707.316 278.341 705.716C276.741 704.117 274.608 704.117 273.009 705.716C271.676 707.049 271.676 708.649 272.475 710.249L110.377 872.348C109.044 871.548 107.177 871.814 105.844 872.881C104.245 874.48 104.245 876.613 105.844 878.213C107.444 879.813 109.577 879.813 111.176 878.213C112.51 876.88 112.51 875.28 111.71 873.681L273.808 711.582C275.408 712.382 277.274 712.382 278.341 711.049Z" fill="#BA1818"></path>
    <path d="M273.009 1172.28C274.608 1173.88 276.741 1173.88 278.341 1172.28C279.941 1170.68 279.941 1168.55 278.341 1166.95C277.008 1165.62 275.408 1165.62 273.808 1166.42L111.71 1004.32C112.51 1002.99 112.243 1001.12 111.176 999.787C109.577 998.187 107.444 998.187 105.844 999.787C104.245 1001.39 104.245 1003.52 105.844 1005.12C107.177 1006.45 108.777 1006.45 110.377 1005.65L272.475 1167.75C271.676 1169.35 271.942 1171.22 273.009 1172.28Z" fill="#BA1818"></path>
    <path d="M1167.75 1605.52C1169.08 1606.32 1170.95 1606.06 1172.28 1604.99C1173.88 1603.39 1173.88 1601.26 1172.28 1599.66C1170.68 1598.06 1168.55 1598.06 1166.95 1599.66C1165.62 1600.99 1165.62 1602.59 1166.42 1604.19L1004.32 1766.29C1002.99 1765.49 1001.12 1765.76 999.788 1766.82C998.188 1768.42 998.188 1770.56 999.788 1772.16C1001.39 1773.76 1003.52 1773.76 1005.12 1772.16C1006.45 1770.82 1006.45 1769.22 1005.65 1767.62L1167.75 1605.52Z" fill="#BA1818"></path>
    <path d="M1604.99 705.716C1603.39 704.117 1601.26 704.117 1599.66 705.716C1598.06 707.316 1598.06 709.449 1599.66 711.049C1600.99 712.382 1602.59 712.382 1604.19 711.582L1766.29 873.681C1765.49 875.014 1765.76 876.88 1766.82 878.213C1768.42 879.813 1770.56 879.813 1772.16 878.213C1773.75 876.613 1773.75 874.48 1772.16 872.881C1770.82 871.548 1769.22 871.548 1767.62 872.348L1605.52 710.249C1606.32 708.649 1606.32 707.049 1604.99 705.716Z" fill="#BA1818"></path>
    <path d="M710.248 272.475C708.915 271.675 707.048 271.942 705.715 273.008C704.116 274.608 704.116 276.741 705.715 278.341C707.315 279.94 709.448 279.94 711.048 278.341C712.381 277.008 712.381 275.408 711.581 273.808L873.68 111.71C875.013 112.509 876.879 112.243 878.212 111.176C879.812 109.577 879.812 107.444 878.212 105.844C876.612 104.244 874.479 104.244 872.88 105.844C871.547 107.177 871.547 108.777 872.347 110.376L710.248 272.475Z" fill="#BA1818"></path>
  </g>
  <defs>
    <clipPath id="clip0_735_7987">
      <rect width="1878" height="1878" fill="white"></rect>
    </clipPath>
  </defs>
</svg>
