<?xml version="1.0" encoding="UTF-8"?>
<svg preserveAspectRatio="xMidYMid slice" xmlns="http://www.w3.org/2000/svg" width="34px" height="34px" viewBox="0 0 30 30" fill="none">
  <path fill-rule="evenodd" clip-rule="evenodd" d="M6.83768 13.6736C9.68017 17.1477 12.8621 20.3296 16.3363 23.1721L17.2359 23.9082C18.727 25.1282 20.8999 25.0198 22.2622 23.6575L24.3659 21.5538L20.3884 17.5764L17.0738 20.8909L9.10489 12.922L12.4305 9.61846L8.45598 5.64393L6.35229 7.74762C4.99 9.10991 4.88163 11.2828 6.1016 12.7739L6.83768 13.6736ZM14.7532 25.107C11.1503 22.1593 7.85055 18.8595 4.90279 15.2567L4.16671 14.357C2.13342 11.8719 2.31404 8.25033 4.58453 5.97985L8.45598 2.1084L15.9719 9.62436L12.6463 12.9279L17.0738 17.3554L20.3884 14.0408L27.9014 21.5538L24.03 25.4253C21.7595 27.6958 18.1379 27.8764 15.6528 25.8431L14.7532 25.107Z" fill="#F8B4B4"></path>
</svg>
