<?xml version="1.0" encoding="UTF-8"?>
<svg preserveAspectRatio="xMidYMid slice" xmlns="http://www.w3.org/2000/svg" width="68px" height="68px" viewBox="0 0 100 100" fill="none">
  <g clip-path="url(#clip0_750_8371)">
    <path d="M18.75 43.75L16.6667 56.25H29.1667L31.25 43.75H18.75Z" fill="#F8B4B4"></path>
    <path d="M25 68.75H20.8332L26.0418 31.25H7.2916L0 81.25H31.25V75C31.25 71.5482 28.4518 68.75 25 68.75Z" fill="#F05252"></path>
    <path d="M31.25 93.75C27.7982 93.75 25 90.9518 25 87.5V75H18.75V87.5C18.75 94.4035 24.3465 100 31.25 100H100V93.75H31.25Z" fill="#F8B4B4"></path>
    <path d="M24.3056 43.75H18.75L16.6667 56.25H22.5693L24.3056 43.75Z" fill="#C81E1E"></path>
    <path d="M18.75 75H25V81.25H18.75V75Z" fill="#C81E1E"></path>
    <path d="M75 12.5H100V18.75H75V12.5Z" fill="#F8B4B4"></path>
    <path d="M62.5 6.25H81.25V25H62.5V6.25Z" fill="#F05252"></path>
    <path d="M75 12.5H81.25V18.75H75V12.5Z" fill="#C81E1E"></path>
    <path d="M6.25 0H68.75V31.25H50L43.75 37.5H6.25C2.79824 37.5 0 34.7018 0 31.25V6.25C0 2.79824 2.79824 0 6.25 0Z" fill="#F8B4B4"></path>
    <path d="M6.38025 37.5H25.1736L26.0418 31.25H7.29158L6.38025 37.5Z" fill="#C81E1E"></path>
    <path d="M62.5 6.25H68.75V25H62.5V6.25Z" fill="#C81E1E"></path>
    <path d="M6.25 6.25H25V12.5H6.25V6.25Z" fill="#F05252"></path>
    <path d="M31.25 6.25H37.5V12.5H31.25V6.25Z" fill="#F05252"></path>
    <path d="M43.75 6.25H50V12.5H43.75V6.25Z" fill="#F05252"></path>
  </g>
  <defs>
    <clipPath id="clip0_750_8371">
      <rect width="100" height="100" fill="white"></rect>
    </clipPath>
  </defs>
</svg>
