<?xml version="1.0" encoding="UTF-8"?>
<svg preserveAspectRatio="xMidYMid slice" xmlns="http://www.w3.org/2000/svg" width="34px" height="34px" viewBox="0 0 100 100" fill="none">
  <g clip-path="url(#clip0_750_8211)">
    <path d="M87.5 56.25H75V50H87.5V56.25Z" fill="#F05252"></path>
    <path d="M25 56.25H12.5V50H25V56.25Z" fill="#F05252"></path>
    <path d="M0 56.25H100V68.75C100 82.557 88.807 93.75 75 93.75H25C11.193 93.75 0 82.557 0 68.75V56.25Z" fill="#F8B4B4"></path>
    <path d="M62.5 93.75H37.5V87.5H62.5V93.75Z" fill="#C81E1E"></path>
    <path d="M62.5 100H37.5V93.75H62.5V100Z" fill="#F05252"></path>
    <path d="M53.125 62.5H46.875V56.25H53.125V62.5Z" fill="#C81E1E"></path>
    <path d="M53.125 56.25H46.875V28.125C46.875 22.9553 42.6697 18.75 37.5 18.75C32.3303 18.75 28.125 22.9553 28.125 28.125V31.25H21.875V28.125C21.875 19.5068 28.8818 12.5 37.5 12.5C46.1182 12.5 53.125 19.5068 53.125 28.125V56.25Z" fill="#F05252"></path>
    <path d="M87.5 34.375H81.25C81.25 25.76 74.24 18.75 65.625 18.75V12.5C77.6855 12.5 87.5 22.3145 87.5 34.375Z" fill="#F05252"></path>
    <path d="M100 34.375H93.75C93.75 18.866 81.134 6.25 65.625 6.25V0C84.5795 0 100 15.4205 100 34.375Z" fill="#F05252"></path>
    <path d="M75 34.375H68.75C68.75 32.6508 67.3492 31.25 65.625 31.25V25C70.7947 25 75 29.2053 75 34.375Z" fill="#F05252"></path>
  </g>
  <defs>
    <clipPath id="clip0_750_8211">
      <rect width="100" height="100" fill="white"></rect>
    </clipPath>
  </defs>
</svg>
