<?xml version="1.0" encoding="UTF-8"?>
<svg preserveAspectRatio="xMidYMid slice" xmlns="http://www.w3.org/2000/svg" width="34px" height="34px" viewBox="0 0 100 100" fill="none">
  <g clip-path="url(#clip0_750_8366)">
    <path d="M93.75 50C93.75 53.4375 90.9375 56.25 87.5 56.25H75C71.5625 56.25 68.75 53.4375 68.75 50L65.8152 54.6875L62.5 50C62.5 53.4375 59.6875 56.25 56.25 56.25H43.75C40.3125 56.25 37.5 53.4375 37.5 50L34.6834 54.6875L31.25 50C31.25 53.4375 28.4375 56.25 25 56.25H12.5C9.0625 56.25 6.25 53.4375 6.25 50H0V100H100V50H93.75Z" fill="#F8B4B4"></path>
    <path d="M78.125 0C69.5 0 62.5 7 62.5 15.625V25H37.5V15.625C37.5 10.4373 41.6873 6.25 46.875 6.25H50V0H46.875C38.25 0 31.25 7 31.25 15.625V50L34.6834 54.6875L37.5 50H62.5L65.8152 54.6875L68.75 50V15.625C68.75 10.4373 72.9373 6.25 78.125 6.25H81.25V0H78.125ZM62.5 43.75H37.5V31.25H62.5V43.75Z" fill="#F05252"></path>
    <path d="M68.75 50V81.25H62.5V68.75H37.5V81.25H31.25V50H37.5V62.5H62.5V50H68.75Z" fill="#C81E1E"></path>
  </g>
  <defs>
    <clipPath id="clip0_750_8366">
      <rect width="100" height="100" fill="white"></rect>
    </clipPath>
  </defs>
</svg>
