<?xml version="1.0" encoding="UTF-8"?>
<svg preserveAspectRatio="xMidYMid slice" xmlns="http://www.w3.org/2000/svg" width="34px" height="34px" viewBox="0 0 70 70" fill="none">
  <path d="M61.25 0V70H13.125V61.25L17.5 54.6875L13.125 48.125V21.875L17.5 15.3125L13.125 8.75V0H61.25Z" fill="#F8B4B4"></path>
  <path d="M8.75 61.25H13.125L17.5 54.6875L13.125 48.125H8.75V61.25ZM8.75 8.75V21.875H13.125L17.5 15.3125L13.125 8.75H8.75Z" fill="#F05252"></path>
  <path d="M17.5 4.375V8.75H13.125V21.875H17.5V48.125H13.125V61.25H17.5V65.625H56.875V4.375H17.5ZM37.4937 8.75H42.7438L36.8811 17.5H45.6311L36.8811 30.625H31.6311L37.4937 21.875H28.7438L37.4937 8.75ZM48.125 56.875H26.25V52.5H48.125V56.875ZM48.125 48.125H26.25V43.75H48.125V48.125ZM48.125 39.375H26.25V35H48.125V39.375Z" fill="#C81E1E"></path>
</svg>
